<svg xmlns="http://www.w3.org/2000/svg" width="456" height="71.89" viewBox="0 0 456 71.89"><path d="M237.73.39c-3.53,0-7.07.44-9.31,2.65s-3.1,5.5-3.1,9.56.77,7.3,3,9.5,5.87,2.73,9.4,2.73,7.06-.45,9.3-2.65,3.12-5.53,3.12-9.58-.79-7.29-3-9.49S241.27.39,237.73.39Zm5.37,18.06c-1.25,1.42-3.5,1.67-5.37,1.67s-4.11-.25-5.36-1.66S231,15.07,231,12.6s.08-4.37,1.33-5.8,3.25-1.67,5.36-1.67,4.12.25,5.37,1.67,1.32,3.34,1.32,5.8S244.34,17,243.1,18.45ZM188.73.82h-5a.38.38,0,0,0-.38.38V24a.38.38,0,0,0,.38.38h5a.39.39,0,0,0,.39-.38V1.2A.39.39,0,0,0,188.73.82Zm-21,11.6,8.89-11a.36.36,0,0,0-.28-.6h-6.41a.46.46,0,0,0-.39.2L163.62,8.8,157.89,1a.47.47,0,0,0-.39-.2h-6.43a.37.37,0,0,0-.29.6l9,11.21-9,11.2a.37.37,0,0,0,.29.59h6.43a.5.5,0,0,0,.39-.2l6-7.77,5.68,7.77a.5.5,0,0,0,.39.2h6.35a.36.36,0,0,0,.29-.59Zm121.9-9.87c-2-1.89-5.31-2.12-8-2.12a15,15,0,0,0-6.93,1.41h-.91A15,15,0,0,0,266.63.43c-2.65,0-5.9.19-7.9,1.87-1.65,1.39-2,3.25-2,7.05V24a.4.4,0,0,0,.39.38h5a.39.39,0,0,0,.39-.38V12c0-2.18-.08-4.45.39-5.3.36-.66.94-1.4,3.66-1.4,3.24,0,4,.23,4.51,1.67a5.33,5.33,0,0,1,.21,1.41V24a.4.4,0,0,0,.39.38h5A.39.39,0,0,0,277,24V8.33a5.33,5.33,0,0,1,.21-1.41c.51-1.44,1.28-1.67,4.52-1.67,2.72,0,3.29.74,3.66,1.4.47.85.38,3.12.38,5.3V24a.4.4,0,0,0,.39.38h5a.39.39,0,0,0,.39-.38V10.24C291.57,6.3,291.44,4.28,289.59,2.55ZM217.75,4C215.44.77,211.26-.2,206.92,0a30.57,30.57,0,0,0-8.25,1.47c-.48.18-.42.6-.43.85,0,.84-.08,3-.07,3.91,0,.39.48.57.88.43A30.72,30.72,0,0,1,206,5c2.57-.21,6.06,0,7,1.46a5.89,5.89,0,0,1,.53,2.84,43.44,43.44,0,0,0-6.33-.22c-1.84.1-5.36.25-7.43,1.35-1.69.9-2.68,1.72-3.2,3.23a9.3,9.3,0,0,0-.4,3.89c.3,2.73,1.25,4.09,2.53,5,2,1.49,4.57,2.28,9.85,2.17,7-.16,8.86-2.43,9.79-4C220,18,219.67,13.67,219.63,11,219.6,9.91,219.44,6.28,217.75,4Zm-4.57,14.41c-.67,1.39-3,1.61-4.43,1.67-2.58.12-4.49,0-5.72-.59a2.81,2.81,0,0,1-1.47-2.38,2.48,2.48,0,0,1,.37-1.89c.91-1.18,3.29-1.44,5.73-1.53a45.19,45.19,0,0,1,6,.34A13.48,13.48,0,0,1,213.18,18.36ZM304.92.82h-5a.39.39,0,0,0-.39.38V24a.39.39,0,0,0,.39.38h5a.38.38,0,0,0,.38-.38V1.2A.38.38,0,0,0,304.92.82Z"/><path d="M20.55,65.24a10.75,10.75,0,0,1-5.46-1.37,9,9,0,0,1-3.59-3.7l3.32-2.23a6.88,6.88,0,0,0,2.43,2.62,6.45,6.45,0,0,0,3.33.86A6.75,6.75,0,0,0,23,61,3.59,3.59,0,0,0,24.55,60a2.42,2.42,0,0,0,.56-1.55,2.39,2.39,0,0,0-.48-1.51,4.15,4.15,0,0,0-1.58-1.13A20.25,20.25,0,0,0,20,54.73l-.16,0a26.92,26.92,0,0,1-3.87-1.32,7,7,0,0,1-2.66-2.07,5.5,5.5,0,0,1-1.12-3.58,6,6,0,0,1,1.12-3.59,7.24,7.24,0,0,1,3.09-2.45,10.92,10.92,0,0,1,4.46-.88,9.65,9.65,0,0,1,5.11,1.29,9.2,9.2,0,0,1,3.3,3.43L26,47.65a6.72,6.72,0,0,0-2.26-2.24,5.74,5.74,0,0,0-3-.82,5.94,5.94,0,0,0-2.2.39A3.79,3.79,0,0,0,17,46a2.32,2.32,0,0,0-.57,1.52A2.36,2.36,0,0,0,17,49.21a4.42,4.42,0,0,0,1.66,1.07,28.08,28.08,0,0,0,3,.94,26.65,26.65,0,0,1,3.94,1.31,7.23,7.23,0,0,1,2.74,2.08,5.58,5.58,0,0,1,1.13,3.62,6.17,6.17,0,0,1-1.12,3.68,7.22,7.22,0,0,1-3.12,2.45A11.37,11.37,0,0,1,20.55,65.24Z"/><path d="M32.62,64.86V47.4h4.05v2.29h.16A5.45,5.45,0,0,1,41.58,47,4.6,4.6,0,0,1,46.07,50h.16a6.25,6.25,0,0,1,2.28-2.26,6.37,6.37,0,0,1,3.23-.8,5,5,0,0,1,4,1.72,7.29,7.29,0,0,1,1.46,4.84V64.86H53.17V54.34a4.33,4.33,0,0,0-.74-2.66,2.46,2.46,0,0,0-2.06-1,3.36,3.36,0,0,0-1.82.48,3,3,0,0,0-1.17,1.37,4.86,4.86,0,0,0-.42,2.1v10.2h-4V54.34a5,5,0,0,0-.35-1.94,2.88,2.88,0,0,0-1-1.26,2.62,2.62,0,0,0-1.5-.43,3.36,3.36,0,0,0-1.82.48,3,3,0,0,0-1.17,1.37,4.86,4.86,0,0,0-.42,2.1v10.2Z"/><path d="M65.85,65.3A6.62,6.62,0,0,1,63,64.7,4.9,4.9,0,0,1,61,63a4.73,4.73,0,0,1-.73-2.65,5.56,5.56,0,0,1,1-3.25A6.35,6.35,0,0,1,64,54.9a11.14,11.14,0,0,1,4.36-.78h2.49v-.67a2.81,2.81,0,0,0-.94-2.2,3.62,3.62,0,0,0-2.47-.83,4,4,0,0,0-2,.48A4.48,4.48,0,0,0,64,52.3l-2.86-2a7.64,7.64,0,0,1,2.83-2.53A8.25,8.25,0,0,1,67.77,47a8.34,8.34,0,0,1,3.72.8A5.87,5.87,0,0,1,74,50a6.65,6.65,0,0,1,.89,3.48V64.86h-4v-2.2H70.7a4.56,4.56,0,0,1-2,1.94A6,6,0,0,1,65.85,65.3ZM67,61.89a4.91,4.91,0,0,0,1.85-.36,3.76,3.76,0,0,0,1.48-1.1,2.79,2.79,0,0,0,.59-1.79V57.53H69.26a8.19,8.19,0,0,0-3.68.65,2.05,2.05,0,0,0-1.22,1.9,1.52,1.52,0,0,0,.71,1.32A3.29,3.29,0,0,0,67,61.89Z"/><path d="M78.69,64.86V47.4h4v3.22h.16a6.88,6.88,0,0,1,2.58-2.71,7.51,7.51,0,0,1,3.89-1h.19V51h-.29a10.3,10.3,0,0,0-3.65.56,4.17,4.17,0,0,0-2.88,4.12v9.15Z"/><path d="M91,51.19V47.4h11.5v3.79ZM99.24,65.4a5.5,5.5,0,0,1-4.11-1.48,6,6,0,0,1-1.43-4.29V42.24h4.08V59.12a2.36,2.36,0,0,0,.62,1.77,2.4,2.4,0,0,0,1.77.62,6.82,6.82,0,0,0,1.94-.32V65A9.34,9.34,0,0,1,99.24,65.4Z"/><path d="M117.56,64.86V41.31h9a12,12,0,0,1,6.1,1.47,9.48,9.48,0,0,1,3.84,4.11,13.86,13.86,0,0,1,1.31,6.21,13.28,13.28,0,0,1-1.36,6.18,9.63,9.63,0,0,1-4,4.11A13.07,13.07,0,0,1,126,64.86ZM126,60.94a8.27,8.27,0,0,0,4.11-.94,6,6,0,0,0,2.5-2.69,9.52,9.52,0,0,0,.85-4.21,9.9,9.9,0,0,0-.82-4.24,5.91,5.91,0,0,0-2.42-2.69,7.69,7.69,0,0,0-4-.94h-4.53V60.94Z"/><path d="M146.1,42.3a2.35,2.35,0,0,1-.68,1.78,2.5,2.5,0,0,1-1.83.67,2.37,2.37,0,0,1-1.8-.67,2.42,2.42,0,0,1-.66-1.78,2.53,2.53,0,0,1,.67-1.83,2.38,2.38,0,0,1,1.79-.69,2.36,2.36,0,0,1,2.51,2.52Zm-.47,22.56h-4V47.4h4Z"/><path d="M156.14,65.3a9.19,9.19,0,0,1-4.57-1.08,6.62,6.62,0,0,1-2.82-2.9l3-2.1a5.56,5.56,0,0,0,1.88,2,4.6,4.6,0,0,0,2.48.68,3.57,3.57,0,0,0,2.05-.49,1.5,1.5,0,0,0,.72-1.29,1.62,1.62,0,0,0-.8-1.4,7.55,7.55,0,0,0-2.45-.93,11.36,11.36,0,0,1-4.74-2,4.27,4.27,0,0,1-1.66-3.5,4.63,4.63,0,0,1,1.85-3.84A7.68,7.68,0,0,1,156,47a8,8,0,0,1,4.06,1,7.18,7.18,0,0,1,2.73,2.71l-3,2.07A5.55,5.55,0,0,0,158.11,51a3.72,3.72,0,0,0-2.07-.62,3.42,3.42,0,0,0-1.94.48,1.49,1.49,0,0,0-.7,1.3,1.6,1.6,0,0,0,.84,1.33,9.28,9.28,0,0,0,2.79,1,9.84,9.84,0,0,1,4.46,2A4.24,4.24,0,0,1,163,59.79a5,5,0,0,1-.86,2.88,5.5,5.5,0,0,1-2.44,2A9,9,0,0,1,156.14,65.3Z"/><path d="M166,71.48V47.4H170v2.23h.16a6.46,6.46,0,0,1,2.2-2,5.7,5.7,0,0,1,2.8-.72,6.31,6.31,0,0,1,3.71,1.12,7.27,7.27,0,0,1,2.5,3.13,11.41,11.41,0,0,1,.89,4.67,12.62,12.62,0,0,1-.89,4.94,7.54,7.54,0,0,1-2.51,3.31,6.18,6.18,0,0,1-3.73,1.18,5.78,5.78,0,0,1-2.84-.7,6.07,6.07,0,0,1-2.13-2H170v8.85Zm3.92-15.35a7,7,0,0,0,.51,2.78,4.38,4.38,0,0,0,1.42,1.87,3.5,3.5,0,0,0,2.12.67,3.84,3.84,0,0,0,2.21-.67,4.31,4.31,0,0,0,1.5-1.87,6.83,6.83,0,0,0,.52-2.78,7,7,0,0,0-.52-2.81,4.31,4.31,0,0,0-1.47-1.86,3.62,3.62,0,0,0-2.15-.65,3.69,3.69,0,0,0-2.16.65,4.17,4.17,0,0,0-1.47,1.86A7.19,7.19,0,0,0,169.87,56.13Z"/><path d="M185.45,61.29v-20h4.05V60a1.05,1.05,0,0,0,1.17,1.18h.83V65h-2a4.26,4.26,0,0,1-3-.94A3.54,3.54,0,0,1,185.45,61.29Z"/><path d="M199.34,65.3a6.67,6.67,0,0,1-2.87-.6,4.9,4.9,0,0,1-2-1.72,4.81,4.81,0,0,1-.73-2.65,5.64,5.64,0,0,1,1-3.25,6.35,6.35,0,0,1,2.82-2.18,11.22,11.22,0,0,1,4.37-.78h2.48v-.67a2.78,2.78,0,0,0-.94-2.2,3.6,3.6,0,0,0-2.47-.83,4.1,4.1,0,0,0-2,.48,4.45,4.45,0,0,0-1.51,1.4l-2.87-2a7.67,7.67,0,0,1,2.84-2.53,8.21,8.21,0,0,1,3.82-.85,8.38,8.38,0,0,1,3.73.8A5.93,5.93,0,0,1,207.5,50a6.65,6.65,0,0,1,.89,3.48V64.86h-4v-2.2h-.19a4.49,4.49,0,0,1-1.94,1.94A6,6,0,0,1,199.34,65.3Zm1.11-3.41a4.88,4.88,0,0,0,1.85-.36,3.62,3.62,0,0,0,1.48-1.1,2.74,2.74,0,0,0,.59-1.79V57.53h-1.62a8.16,8.16,0,0,0-3.68.65,2.06,2.06,0,0,0-1.23,1.9,1.53,1.53,0,0,0,.72,1.32A3.27,3.27,0,0,0,200.45,61.89Z"/><path d="M209.79,47.4h4.49l4.46,12.52h.19l4.34-12.52h4.49l-9.5,24.08H213.9l2.74-6.62Z"/><path d="M243.66,64.86V41.31h3.88l8.06,12.81h.19l8.06-12.81h3.89V64.86h-4.08V49h-.19l-6.31,10h-2.93l-6.31-10h-.19V64.86Z"/><path d="M276.76,65.3a6.64,6.64,0,0,1-2.87-.6,4.9,4.9,0,0,1-2-1.72,4.73,4.73,0,0,1-.73-2.65,5.56,5.56,0,0,1,1-3.25,6.35,6.35,0,0,1,2.82-2.18,11.19,11.19,0,0,1,4.37-.78h2.48v-.67a2.78,2.78,0,0,0-.94-2.2,3.62,3.62,0,0,0-2.47-.83,4.07,4.07,0,0,0-2,.48,4.45,4.45,0,0,0-1.51,1.4l-2.87-2a7.72,7.72,0,0,1,2.83-2.53,8.25,8.25,0,0,1,3.83-.85,8.42,8.42,0,0,1,3.73.8A5.85,5.85,0,0,1,284.91,50a6.55,6.55,0,0,1,.89,3.48V64.86h-4v-2.2h-.19a4.54,4.54,0,0,1-1.94,1.94A6,6,0,0,1,276.76,65.3Zm1.11-3.41a4.91,4.91,0,0,0,1.85-.36,3.69,3.69,0,0,0,1.48-1.1,2.79,2.79,0,0,0,.59-1.79V57.53h-1.62a8.13,8.13,0,0,0-3.68.65,2.06,2.06,0,0,0-1.23,1.9A1.53,1.53,0,0,0,276,61.4,3.25,3.25,0,0,0,277.87,61.89Z"/><path d="M287.87,64.86l6.66-9.27,2.58,2.54-4.36,6.73Zm12.43,0-5.07-7.75-6.88-9.71h4.78l4.59,7.07,7.45,10.39Zm-1.72-8.51-2.45-2.55,4-6.4h4.75Z"/><path d="M328.53,65.27a10.63,10.63,0,0,1-4.46-.88A7.34,7.34,0,0,1,321,62a6,6,0,0,1-.47-6.16,6.69,6.69,0,0,1,1.62-2.12,7.36,7.36,0,0,1,2.18-1.32v-.1a6,6,0,0,1-2.48-2,5.25,5.25,0,0,1-1.05-3.2,5.45,5.45,0,0,1,1-3.17,6.4,6.4,0,0,1,2.72-2.22,10.52,10.52,0,0,1,8,0,6.52,6.52,0,0,1,2.74,2.22,5.39,5.39,0,0,1,1,3.17,5.24,5.24,0,0,1-1.07,3.25,5.88,5.88,0,0,1-2.53,2v.1a7.11,7.11,0,0,1,3.83,3.45,5.76,5.76,0,0,1,.63,2.66A5.89,5.89,0,0,1,336,62,7.34,7.34,0,0,1,333,64.39,10.54,10.54,0,0,1,328.53,65.27Zm0-3.79a5.07,5.07,0,0,0,2.19-.45,3.44,3.44,0,0,0,1.5-1.26,3.33,3.33,0,0,0,.54-1.89,3.41,3.41,0,0,0-.54-1.93,3.55,3.55,0,0,0-1.51-1.26,5.31,5.31,0,0,0-2.18-.44,5.4,5.4,0,0,0-2.22.44A3.55,3.55,0,0,0,324.8,56a3.41,3.41,0,0,0-.54,1.93,3.33,3.33,0,0,0,.54,1.89A3.44,3.44,0,0,0,326.3,61,5.16,5.16,0,0,0,328.53,61.48Zm0-11a4,4,0,0,0,1.76-.37,3,3,0,0,0,1.23-1,2.88,2.88,0,0,0,0-3.09,2.81,2.81,0,0,0-1.23-1,4.16,4.16,0,0,0-1.76-.35,4.25,4.25,0,0,0-1.8.35,2.81,2.81,0,0,0-1.23,1,2.88,2.88,0,0,0,0,3.09,3,3,0,0,0,1.23,1A4.11,4.11,0,0,0,328.53,50.52Z"/><path d="M343.47,58.26a6.79,6.79,0,0,0,1.94,2.41,4.89,4.89,0,0,0,4.81.33,3.42,3.42,0,0,0,1.44-1.38,4.23,4.23,0,0,0,.51-2.09,4.07,4.07,0,0,0-.51-2.07,3.4,3.4,0,0,0-1.44-1.37,4.62,4.62,0,0,0-2.16-.48,4.45,4.45,0,0,0-2.17.54,4.35,4.35,0,0,0-1.63,1.59l-3.53-1.62.95-12.84h13.45V45.1H345.6l-.54,6.38-.86.06a5.84,5.84,0,0,1,2.12-1.28,7.89,7.89,0,0,1,2.6-.44,8,8,0,0,1,3.95.94,6.39,6.39,0,0,1,2.59,2.66,8.35,8.35,0,0,1,.91,4,8.2,8.2,0,0,1-1,4.16,6.92,6.92,0,0,1-2.9,2.74,9.49,9.49,0,0,1-4.43,1A9.09,9.09,0,0,1,343.13,64a7.55,7.55,0,0,1-3-3.48Z"/><path d="M443.77,43.19A6.26,6.26,0,0,0,440,39.67a20.11,20.11,0,0,0-5.57-.48H381.94a20,20,0,0,0-5.56.48,6.27,6.27,0,0,0-3.83,3.52c-.67,1.48-.72,3.42-.72,5.79v7.57c0,2.37.05,4.3.72,5.79a6.26,6.26,0,0,0,3.83,3.51,19.69,19.69,0,0,0,5.56.49h52.44a19.73,19.73,0,0,0,5.57-.49,6.24,6.24,0,0,0,3.82-3.51c.67-1.48.73-3.42.73-5.79V49C444.5,46.6,444.44,44.67,443.77,43.19Zm-1.11,5.43V56.9a13,13,0,0,1-.48,4.53,4.69,4.69,0,0,1-2.81,2.65,15.75,15.75,0,0,1-5,.42H381.92a15.86,15.86,0,0,1-5-.42,4.67,4.67,0,0,1-2.8-2.65,13,13,0,0,1-.48-4.53V48.62a12.93,12.93,0,0,1,.48-4.52,4.69,4.69,0,0,1,2.8-2.66,16.28,16.28,0,0,1,5-.41h52.49a16.17,16.17,0,0,1,5,.41,4.71,4.71,0,0,1,2.81,2.66A12.93,12.93,0,0,1,442.66,48.62Z"/><path d="M388.47,47.21a2.7,2.7,0,0,0-1.71.56,4.29,4.29,0,0,0-1.25,1.69l-2.21-1.52a5.33,5.33,0,0,1,2-2.39,5.61,5.61,0,0,1,3.3-.94,5.92,5.92,0,0,1,2.71.58,4.21,4.21,0,0,1,1.79,1.65,4.75,4.75,0,0,1,.63,2.49,5.26,5.26,0,0,1-.62,2.47,12.09,12.09,0,0,1-2,2.57l-4.85,5.2-.58-1.32H394v2.66H383.3v-2L388.8,53a13.46,13.46,0,0,0,1.53-1.95,3.06,3.06,0,0,0,.44-1.58,2.12,2.12,0,0,0-2.3-2.27Z"/><path d="M401.61,61.19a5,5,0,0,1-4.32-2.1,10.56,10.56,0,0,1-1.5-6.17,10.66,10.66,0,0,1,1.5-6.2,5.48,5.48,0,0,1,8.64,0c1,1.41,1.51,3.47,1.51,6.2s-.5,4.77-1.51,6.17A5,5,0,0,1,401.61,61.19Zm0-2.64a2.35,2.35,0,0,0,2.16-1.43,9.27,9.27,0,0,0,.75-4.2,9.41,9.41,0,0,0-.75-4.23,2.33,2.33,0,0,0-4.3,0,9.26,9.26,0,0,0-.76,4.23,9.12,9.12,0,0,0,.76,4.2A2.36,2.36,0,0,0,401.61,58.55Z"/><path d="M414.21,47.21a2.7,2.7,0,0,0-1.71.56,4.29,4.29,0,0,0-1.25,1.69L409,47.94a5.4,5.4,0,0,1,2-2.39,5.61,5.61,0,0,1,3.3-.94,6,6,0,0,1,2.72.58,4.18,4.18,0,0,1,1.78,1.65,4.75,4.75,0,0,1,.63,2.49,5.25,5.25,0,0,1-.61,2.47,12.8,12.8,0,0,1-2,2.57L412,59.57l-.59-1.32h8.34v2.66H409v-2l5.5-5.86a13,13,0,0,0,1.54-1.95,3.05,3.05,0,0,0,.43-1.58,2.12,2.12,0,0,0-2.3-2.27Z"/><path d="M424,56.43a4.5,4.5,0,0,0,1.32,1.63,3.29,3.29,0,0,0,3.27.23,2.31,2.31,0,0,0,1-.94,2.87,2.87,0,0,0,.35-1.42,2.83,2.83,0,0,0-.35-1.41,2.35,2.35,0,0,0-1-.93,3.25,3.25,0,0,0-1.47-.32,3,3,0,0,0-1.48.37,2.92,2.92,0,0,0-1.1,1.08l-2.4-1.11.65-8.72h9.13v2.6h-6.47l-.37,4.33-.58,0a4,4,0,0,1,1.44-.87,5.29,5.29,0,0,1,1.76-.3,5.41,5.41,0,0,1,2.69.64,4.39,4.39,0,0,1,1.76,1.81,5.72,5.72,0,0,1,.62,2.7,5.48,5.48,0,0,1-.7,2.83,4.66,4.66,0,0,1-2,1.86,6.44,6.44,0,0,1-3,.66,6.25,6.25,0,0,1-3.33-.86,5.14,5.14,0,0,1-2-2.36Z"/></svg>