<?xml version="1.0" encoding="UTF-8"?><svg id="a" xmlns="http://www.w3.org/2000/svg" width="456" height="25" viewBox="0 0 456 25"><path d="M168.44,5.23c1.27,0,2.28-.98,2.28-2.24s-1.01-2.24-2.28-2.24-2.28,1.01-2.28,2.24.98,2.24,2.28,2.24" style="fill:#000; stroke-width:0px;"/><rect x="166.68" y="7.89" width="3.45" height="16.39" style="fill:#000; stroke-width:0px;"/><path d="M159.84,24.28v-10.7c0-2.7-1.24-3.77-3.25-3.77-1.27,0-2.44.55-3.41,1.4v13.07h-3.45v-10.7c0-2.7-1.66-3.77-3.84-3.77-1.2,0-2.15.29-2.86.85v13.63h-3.45v-15.41c1.63-1.3,4.23-1.95,6.67-1.95,2.28,0,4.16.62,5.4,1.89,1.72-1.2,3.67-1.89,5.69-1.89,3.77,0,5.95,1.98,5.95,6.02v11.35h-3.45v-.02Z" style="fill:#000; stroke-width:0px;"/><path d="M132.6,1.23v6.24c-1.27-.36-2.47-.55-3.58-.55-4.81,0-8,3.28-8,9.04s3.74,9.04,8.91,9.04c1.89,0,3.97-.42,6.11-1.24V.32l-3.45.91h.01ZM132.63,21.62c-.94.26-1.82.39-2.6.39-3.32,0-5.3-2.28-5.3-6.05,0-4.1,1.76-6.11,4.81-6.11.91,0,1.95.2,3.09.55,0,0,0,11.22,0,11.22Z" style="fill:#000; stroke-width:0px;"/><path d="M106.61,17.29h11.87c.16-6.8-2.28-10.37-7.45-10.37-4.75,0-8.16,3.02-8.16,8.91,0,6.31,3.48,9.17,8.75,9.17,2.15,0,4.36-.59,6.11-1.46v-2.83c-2.37.94-3.84,1.3-6.08,1.3-2.83,0-5.04-1.59-5.04-4.72ZM111.03,9.78c2.86,0,4.23,2.05,4.23,4.81h-8.65c0-2.96,1.82-4.81,4.42-4.81Z" style="fill:#000; stroke-width:0px;"/><path d="M96.27,13.72c2.76-1.17,4.49-3.51,4.49-6.47,0-3.8-2.83-6.5-7.22-6.5h-8.33v23.54h3.45v-10.05h4.06l4.65,10.05h4.06l-5.17-10.57h.01ZM92.49,11.37h-3.84V3.6h3.84c2.93,0,4.62,1.43,4.62,3.87s-1.69,3.9-4.62,3.9Z" style="fill:#000; stroke-width:0px;"/><path d="M183.93.69h3.77l4.66,17.54h.19l4.95-17.54h3.84l5.11,17.54h.16l4.65-17.54h3.74l-6.53,23.47h-3.58l-5.36-17.85h-.22l-5.36,17.85h-3.58l-6.44-23.47Z" style="fill:#000; stroke-width:0px;"/><path d="M220.14,24.6c-1.08,0-2.04-.2-2.87-.59-.84-.39-1.49-.96-1.97-1.7-.48-.74-.71-1.6-.71-2.57,0-1.23.32-2.29.97-3.19.64-.9,1.58-1.6,2.81-2.09,1.23-.5,2.67-.75,4.34-.75h2.57v-.82c0-.99-.33-1.79-.98-2.39-.66-.6-1.52-.9-2.6-.9-.76,0-1.44.16-2.05.49s-1.13.8-1.57,1.41l-2.57-1.78c.76-1.06,1.68-1.85,2.74-2.38,1.07-.53,2.29-.79,3.66-.79s2.55.25,3.6.76,1.86,1.24,2.43,2.2c.57.96.86,2.1.86,3.41v11.23h-3.52v-2.25h-.19c-.42.82-1.09,1.48-2,1.97s-1.89.73-2.95.73h0ZM221.03,21.55c.66,0,1.31-.13,1.97-.4.65-.26,1.2-.68,1.63-1.24s.65-1.24.65-2.05v-1.14h-1.84c-1.73,0-3.04.24-3.93.71s-1.33,1.17-1.33,2.08c0,.61.26,1.11.79,1.47.53.37,1.22.55,2.06.55v.02Z" style="fill:#000; stroke-width:0px;"/><path d="M231.3,10.29v-3.33h10.97v3.33h-10.97ZM239.23,24.75c-1.69,0-2.99-.48-3.88-1.43-.9-.95-1.35-2.33-1.35-4.12V1.76h3.52v17.06c0,.82.22,1.46.65,1.9s1.05.67,1.86.67c.57,0,1.19-.11,1.87-.32v3.27c-.76.27-1.65.41-2.66.41h0Z" style="fill:#000; stroke-width:0px;"/><path d="M252.1,24.6c-1.65,0-3.1-.37-4.34-1.11-1.25-.74-2.2-1.79-2.87-3.16-.67-1.36-1-2.95-1-4.77s.33-3.38,1-4.74,1.62-2.42,2.87-3.16,2.7-1.11,4.34-1.11c1.35,0,2.62.35,3.81,1.05,1.18.7,2.09,1.62,2.73,2.76l-2.76,1.93c-.46-.76-1.04-1.35-1.71-1.78-.68-.42-1.42-.63-2.22-.63-.91,0-1.7.23-2.36.7-.67.47-1.18,1.13-1.55,1.98-.37.86-.55,1.86-.55,3s.18,2.15.54,3.01c.36.87.88,1.53,1.55,2s1.46.7,2.35.7c.8,0,1.55-.21,2.24-.63s1.26-1.01,1.73-1.78l2.76,1.93c-.63,1.14-1.54,2.06-2.73,2.76-1.18.7-2.45,1.05-3.81,1.05h-.02Z" style="fill:#000; stroke-width:0px;"/><path d="M261.87,24.15V.69h3.49v8.66h.16c.51-.85,1.23-1.52,2.17-2.03s1.92-.76,2.93-.76c1.84,0,3.28.58,4.31,1.73,1.04,1.15,1.55,2.77,1.55,4.87v11h-3.52v-10.34c0-1.2-.33-2.17-.98-2.9-.66-.73-1.49-1.09-2.51-1.09-.82,0-1.54.18-2.16.54-.61.36-1.09.87-1.44,1.52-.35.66-.52,1.41-.52,2.25v10.02h-3.49.01Z" style="fill:#000; stroke-width:0px;"/><path d="M322.61,21.14h11.75v2.9h-14.84V.72h3.09v20.42Z" style="fill:#000; stroke-width:0px;"/><path d="M341.08,1.98c0,.61-.18,1.09-.55,1.43-.37.35-.86.52-1.47.52s-1.06-.17-1.4-.52-.52-.82-.52-1.43.17-1.09.52-1.45C338,.18,338.47,0,339.06,0s1.1.18,1.47.54.55.84.55,1.45h0ZM340.6,24.04h-2.99V7.18h2.99v16.86Z" style="fill:#000; stroke-width:0px;"/><path d="M343.72,9.99v-2.8h10.4v2.8h-10.4ZM351.35,24.67c-1.6,0-2.83-.46-3.69-1.37-.86-.91-1.29-2.22-1.29-3.92V1.95h2.96v17.17c0,.86.24,1.53.71,2.02.47.48,1.12.73,1.94.73.52,0,1.11-.1,1.76-.32v2.74c-.65.25-1.45.38-2.39.38h0Z" style="fill:#000; stroke-width:0px;"/><path d="M363.92,24.45c-1.64,0-3.06-.35-4.27-1.06-1.21-.7-2.14-1.72-2.79-3.04s-.98-2.89-.98-4.69.3-3.38.91-4.73,1.5-2.38,2.66-3.1,2.54-1.09,4.11-1.09c1.47,0,2.75.3,3.84.91,1.09.61,1.93,1.48,2.52,2.61s.88,2.45.88,3.94c0,.78-.06,1.54-.19,2.3h-12.48l.09-2.62h9.55c0-.92-.16-1.72-.47-2.39s-.79-1.19-1.42-1.54c-.63-.36-1.41-.54-2.33-.54s-1.8.23-2.49.68c-.69.45-1.22,1.15-1.59,2.1-.37.94-.55,2.12-.55,3.53,0,1.24.2,2.31.6,3.21s.97,1.6,1.72,2.1c.75.49,1.64.74,2.69.74.84,0,1.62-.2,2.35-.61s1.34-1.02,1.84-1.84l2.33,1.58c-.69,1.13-1.59,2.01-2.68,2.63s-2.38.93-3.88.93h.03Z" style="fill:#000; stroke-width:0px;"/><path d="M292.8,17.79c.59,1.1,1.28,1.93,2.08,2.51s1.76.86,2.9.86c.85,0,1.6-.18,2.27-.54s1.18-.87,1.54-1.52c.36-.66.54-1.41.54-2.25s-.19-1.59-.55-2.22c-.37-.63-.89-1.13-1.55-1.49-.67-.36-1.44-.54-2.33-.54-.8,0-1.55.18-2.24.54s-1.27.89-1.76,1.59l-3.08-1.39.98-12.75h12.94v3.33h-9.58l-.57,6.91-.51.06c.55-.53,1.23-.92,2.03-1.19.8-.26,1.65-.4,2.54-.4,1.46,0,2.75.31,3.87.92s1.98,1.48,2.58,2.6c.6,1.12.9,2.42.9,3.9,0,1.56-.33,2.93-.98,4.09-.66,1.16-1.6,2.07-2.82,2.71-1.23.64-2.64.97-4.25.97-1.9,0-3.53-.43-4.88-1.28-1.35-.86-2.34-1.99-2.95-3.41l2.89-2h0Z" style="fill:#000; stroke-width:0px;"/></svg>