<?xml version="1.0" encoding="UTF-8"?><svg id="a" xmlns="http://www.w3.org/2000/svg" width="456.01" height="111.17" viewBox="0 0 456.01 111.17"><path d="m293.8,24.09h-131.58c-6.65,0-12.05-5.39-12.05-12.05S155.56-.01,162.22-.01h131.58c6.65,0,12.05,5.39,12.05,12.05s-5.39,12.05-12.05,12.05"/><path d="m170.5,3.87l-6.01,16.04h3.04l1.58-4.41h5.73l1.58,4.41h3.02l-6.01-16.04h-2.93Zm-.42,8.94l1.83-5.1h.13l1.83,5.1h-3.8,0Z" style="fill:#fff;"/><path d="m188.56,9.54h-.11c-.39-.58-.87-1.03-1.44-1.35-.57-.32-1.2-.48-1.88-.48-.97,0-1.83.25-2.57.76-.75.51-1.32,1.22-1.74,2.15-.41.93-.62,2-.62,3.21s.21,2.37.63,3.33c.42.96,1.01,1.71,1.77,2.25.76.54,1.63.8,2.62.8.68,0,1.3-.16,1.87-.48s1.02-.77,1.37-1.35h.11v1.52h2.78V3.87h-2.78v5.67h0Zm-.26,6.33c-.23.54-.55.97-.97,1.27-.41.3-.89.46-1.42.46-.58,0-1.09-.15-1.52-.46-.43-.3-.77-.73-1.02-1.27-.25-.54-.37-1.18-.37-1.9s.12-1.36.36-1.91.57-.97,1-1.27.92-.44,1.47-.44,1.04.15,1.48.44c.43.3.77.72,1,1.27s.35,1.19.35,1.91-.12,1.36-.35,1.9h0Z" style="fill:#fff;"/><polygon points="198.87 16.64 198.74 16.64 195.77 8.02 192.77 8.02 197.31 19.92 200.18 19.92 204.78 8.02 201.78 8.02 198.87 16.64" style="fill:#fff;"/><path d="m212.74,8.26c-.74-.36-1.58-.54-2.54-.54s-1.85.19-2.6.58c-.75.38-1.4.96-1.93,1.73l1.95,1.35c.29-.42.63-.74,1.03-.96s.85-.33,1.36-.33c.69,0,1.26.19,1.68.56.43.38.64.88.64,1.5v.46h-1.69c-1.14,0-2.13.18-2.97.53-.84.35-1.48.85-1.92,1.49-.44.64-.66,1.38-.66,2.21,0,.69.17,1.3.5,1.8.33.51.79.9,1.37,1.17s1.23.41,1.95.41,1.38-.16,1.98-.48c.59-.32,1.03-.76,1.32-1.32h.13v1.5h2.74v-7.73c0-.91-.2-1.7-.61-2.38-.41-.67-.98-1.19-1.71-1.55h-.02Zm-.41,7.42c0,.48-.13.88-.4,1.22-.27.33-.6.58-1.01.75-.41.17-.82.25-1.26.25-.54,0-.97-.11-1.29-.34-.33-.22-.49-.52-.49-.9,0-.56.28-.99.84-1.29s1.39-.44,2.51-.44h1.11v.76h-.01Z" style="fill:#fff;"/><path d="m223.97,7.72c-.71,0-1.38.17-2,.51-.62.34-1.11.8-1.45,1.38h-.11v-1.58h-2.76v11.9h2.76v-6.9c0-.54.1-1.01.31-1.42.21-.41.51-.73.9-.96.39-.22.85-.34,1.37-.34.64,0,1.16.23,1.56.68.4.46.61,1.06.61,1.81v7.12h2.76v-7.66c0-1.45-.35-2.56-1.04-3.35-.69-.79-1.66-1.18-2.91-1.18h0Z" style="fill:#fff;"/><path d="m234.11,10.77c.43-.3.93-.44,1.51-.44.52,0,1,.14,1.43.42s.8.69,1.11,1.23l2.17-1.52c-.43-.83-1.07-1.48-1.9-1.98-.83-.49-1.73-.74-2.7-.74-1.16,0-2.17.25-3.04.76s-1.54,1.23-2.01,2.17c-.47.94-.71,2.04-.71,3.3s.24,2.36.71,3.3,1.14,1.67,2.01,2.18,1.88.77,3.04.77c.97,0,1.87-.25,2.7-.75s1.47-1.16,1.9-1.99l-2.17-1.52c-.3.54-.67.94-1.11,1.23-.43.28-.92.42-1.45.42-.58,0-1.08-.15-1.5-.44-.42-.3-.75-.72-.98-1.27-.23-.55-.35-1.19-.35-1.93s.12-1.36.35-1.92c.23-.56.56-.98.99-1.28Z" style="fill:#fff;"/><path d="m249.93,8.37c-.8-.43-1.72-.65-2.78-.65s-2.09.26-2.94.77-1.49,1.25-1.94,2.2c-.45.96-.67,2.07-.67,3.34s.24,2.35.71,3.28,1.14,1.64,2.01,2.15,1.89.76,3.06.76,2.07-.24,2.87-.73c.8-.48,1.4-1.12,1.8-1.9l-2.08-1.43c-.3.55-.67.96-1.11,1.24-.43.28-.92.41-1.45.41-.65,0-1.2-.15-1.64-.46-.44-.3-.77-.73-1-1.28-.14-.35-.24-.75-.29-1.19h7.74c.14-.59.22-1.2.22-1.82,0-1.07-.22-2.01-.65-2.82-.43-.81-1.05-1.43-1.85-1.87h-.01Zm-5.4,4.28c.05-.28.11-.54.19-.77.2-.6.51-1.06.92-1.37s.92-.47,1.51-.47c.54,0,.99.11,1.36.33s.64.52.83.9c.18.38.27.84.27,1.38h-5.08Z" style="fill:#fff;"/><path d="m262.41,3.87v5.67h-.11c-.39-.58-.87-1.03-1.44-1.35-.57-.32-1.2-.48-1.88-.48-.97,0-1.83.25-2.57.76-.75.51-1.32,1.22-1.74,2.15-.41.93-.62,2-.62,3.21s.21,2.37.63,3.33c.42.96,1.01,1.71,1.77,2.25s1.63.8,2.62.8c.68,0,1.3-.16,1.87-.48s1.02-.77,1.37-1.35h.11v1.52h2.78V3.87h-2.79Zm-.26,11.99c-.23.54-.55.97-.97,1.27-.41.3-.89.46-1.42.46-.58,0-1.09-.15-1.52-.46-.43-.3-.77-.73-1.02-1.27-.25-.54-.37-1.18-.37-1.9s.12-1.36.36-1.91.57-.97,1-1.27.92-.44,1.47-.44,1.04.15,1.48.44c.43.3.77.72,1,1.27s.35,1.19.35,1.91-.12,1.36-.35,1.9h-.01Z" style="fill:#fff;"/><path d="m278,3.87l-6.01,16.04h3.04l1.58-4.41h5.73l1.58,4.41h3.02l-6.01-16.04h-2.93,0Zm-.42,8.94l1.83-5.1h.13l1.83,5.1h-3.8.01Z" style="fill:#fff;"/><rect x="288.68" y="3.87" width="2.84" height="16.04" style="fill:#fff;"/><rect x="224.63" y="95.84" width="3.14" height=".87"/><path d="m213.09,93.76c-.07-.34-.16-.54-.23-.68-.17-.31-.53-.78-1.39-.78-.28,0-.81.03-1.3.56-.4.43-.77,1.17-.77,2.47,0,.88.18,1.9.87,2.53.48.43,1,.46,1.23.46.17,0,.59-.01.98-.31.62-.49.68-1.4.7-1.57h1.1c0,.27-.04,1.16-.56,1.89-.29.42-.92,1.06-2.17,1.06-.26,0-.88-.02-1.51-.33-.87-.43-1.91-1.48-1.91-3.7,0-1.93.74-2.95,1.41-3.46.78-.59,1.6-.63,1.95-.63,1.02,0,1.97.44,2.41,1.41.17.36.22.71.27,1.1h-1.08v-.02Z"/><path d="m217.84,91.8c.76-.51,1.5-.54,1.82-.54,1.18,0,1.9.56,2.22.88.53.51,1.15,1.47,1.15,3.18,0,.47-.02,2.51-1.62,3.55-.53.34-1.11.51-1.75.51-.28,0-.94-.03-1.61-.42-1.74-1-1.77-3.17-1.77-3.64,0-1.32.41-2.73,1.57-3.52m.1,5.42c.17.32.33.5.44.61.49.48,1.02.51,1.27.51.72,0,1.29-.37,1.64-.99.21-.36.46-1.03.46-2.03,0-.22.02-1.72-.83-2.53-.2-.19-.59-.49-1.27-.49-.17,0-.56.01-.93.24-1.21.71-1.17,2.59-1.17,2.77,0,.22,0,1.14.38,1.9"/><polygon points="234.21 94.65 234.21 95.69 231.06 95.69 231.06 98.19 234.59 98.19 234.59 99.23 229.85 99.23 229.85 91.4 234.49 91.4 234.49 92.43 231.06 92.43 231.06 94.65 234.21 94.65"/><polygon points="238.39 91.4 241.85 97.38 241.85 91.4 242.99 91.4 242.99 99.23 241.74 99.23 238.24 93.25 238.24 99.23 237.09 99.23 237.09 91.4 238.39 91.4"/><path d="m251.85,95.26v3.24c-.09.07-.33.23-.61.38-.32.16-1.12.5-2.14.5-1.4,0-2.17-.63-2.55-1.07-.42-.49-.94-1.44-.94-3.01,0-.44.01-2.55,1.62-3.56.29-.18.9-.49,1.77-.49.99,0,1.97.4,2.44,1.32.14.27.26.57.31,1.18h-1.08c-.06-.28-.19-1.09-1.04-1.35-.26-.09-.52-.1-.61-.1-.32,0-1.07.08-1.59.82-.42.61-.56,1.5-.56,2.21,0,1.42.51,3,2.24,3,.57,0,1.22-.2,1.71-.51v-1.6h-1.59v-.96h2.62Z"/><rect x="254.63" y="91.4" width="1.22" height="7.84"/><polygon points="260.21 91.4 263.68 97.38 263.68 91.4 264.82 91.4 264.82 99.23 263.56 99.23 260.07 93.25 260.07 99.23 258.91 99.23 258.91 91.4 260.21 91.4"/><polygon points="272.24 94.65 272.24 95.69 269.09 95.69 269.09 98.19 272.62 98.19 272.62 99.23 267.88 99.23 267.88 91.4 272.52 91.4 272.52 92.43 269.09 92.43 269.09 94.65 272.24 94.65"/><polygon points="279.49 94.65 279.49 95.69 276.33 95.69 276.33 98.19 279.86 98.19 279.86 99.23 275.12 99.23 275.12 91.4 279.76 91.4 279.76 92.43 276.33 92.43 276.33 94.65 279.49 94.65"/><path d="m284.03,91.4c.43,0,1.01,0,1.44.06.32.06,1.26.19,1.77,1.07.12.2.31.61.3,1.2,0,.19-.02.77-.34,1.27-.17.26-.39.47-.63.63-.22.14-.42.21-.51.26l1.93,3.36h-1.43l-1.79-3.17h-1.21v3.17h-1.21v-7.84h1.69,0Zm.7,3.63c.32-.02,1.57-.04,1.55-1.33,0-.63-.36-.93-.57-1.04-.44-.26-1.21-.21-1.68-.22h-.49v2.6h1.19Z"/><polygon points="294.59 94.65 294.59 95.69 291.44 95.69 291.44 98.19 294.97 98.19 294.97 99.23 290.23 99.23 290.23 91.4 294.87 91.4 294.87 92.43 291.44 92.43 291.44 94.65 294.59 94.65"/><path d="m299.7,91.4c1.28.04,1.87.3,2.37.68.57.43,1.43,1.44,1.42,3.24,0,1.1-.36,2.29-1.19,3.05-.96.89-2.2.87-3.39.87h-1.43v-7.84h2.22Zm-.37,6.79c.61,0,.89-.01,1.18-.09.54-.12,1.31-.49,1.61-1.75.11-.48.11-.87.11-1.04,0-1.13-.39-2.37-1.6-2.74-.41-.12-.78-.13-1.6-.13h-.34v5.76h.64Z"/><polygon points="310.77 91.4 312.28 97.78 313.81 91.4 314.85 91.4 316.4 97.78 317.92 91.4 319.04 91.4 317.08 99.26 315.73 99.26 314.32 93.67 312.92 99.26 311.56 99.26 309.62 91.4 310.77 91.4"/><rect x="321.27" y="91.4" width="1.22" height="7.84"/><polygon points="330.1 91.4 330.1 92.43 328.04 92.43 328.04 99.23 326.83 99.23 326.83 92.43 324.78 92.43 324.78 91.4 330.1 91.4"/><polygon points="336.98 94.64 336.98 91.4 338.19 91.4 338.19 99.23 336.98 99.23 336.98 95.65 333.6 95.65 333.6 99.23 332.38 99.23 332.38 91.4 333.6 91.4 333.6 94.64 336.98 94.64"/><path d="m361.7,111.17c8.72,0,15.78-7.07,15.78-15.78s-7.07-15.79-15.78-15.79-15.78,7.07-15.78,15.79,7.07,15.78,15.78,15.78Z" style="fill:#e60012;"/><path d="m374.25,96.29s-.41.3-.7.3c-.22,0-.34-.19-.34-.39,0-.46.72-2.71.72-2.71l-1.75.03-.09.3s-.26-.52-1.17-.52c-1.78,0-2.76,1.54-2.8,2.44,0,.2-.01.23-.01.23-.04.05-.67.77-1.44.77-.62,0-.72-.52-.72-.85,0-.36.3-1.78,1.14-1.78.46,0,.74.4.74.4l.25-.81s-.39-.3-1.19-.3c-1.72,0-2.9,1.29-2.94,2.45,0,.17-.02.23-.01.24-.06.07-.48.56-1.03.56-.38,0-.38-.3-.38-.43,0-.18.74-2.71.74-2.71l-1.94.03-.7,2.46s-1.07.77-2.56.88c-.77.05-1.04-.41-1.04-.69v-.11s.31.02.55.02c.18,0,2.45-.16,2.45-1.55,0-.8-.8-1.1-1.8-1.1-1.86,0-3.16,1.15-3.16,2.52,0,1.25,1.07,1.78,2.44,1.78,1.56,0,3.08-.95,3.08-.95,0,0,.08.95,1.31.95s2.26-.95,2.26-.95c0,0,.55.92,1.81.92s2.28-1.04,2.28-1.04c0,0,.35.98,1.62.98,1,0,1.54-.66,1.54-.66,0,0,.29.66,1.16.66,1.06,0,1.86-.75,1.86-.75l-.19-.61h.02,0Zm-15.93-2.28c.26.01.44.2.43.4-.04,1.24-1.57,1.04-1.57,1.04,0,0,.25-1.49,1.14-1.44h0Zm12.23,2.72c-.48,0-.48-.53-.48-.68,0-.4.32-2,1.18-2,.37,0,.56.31.56.54,0,.05-.22,2.14-1.27,2.14h.01Z" style="fill:#fff;"/><path d="m374.6,97.95s-4.08,1.42-11.88,1.33c-5.38-.07-9.48-1.65-9.48-1.65,0,0,.13-.26.22-.43.54-1.1,1.17-3.33,1.17-3.33,0,0,3.7-1.03,3.7-3.97,0-.93-.87-1.53-1.72-1.57-2.98-.12-3.81,4.13-3.99,4.85-.01.05-.02.07-.02.07-.92-.13-1.44-.31-1.44-.31l-.21.57c.62.3,1.52.39,1.52.39-.18,1.14-1.06,3.29-1.06,3.29,0,0-.82-.27-1.83-.27-1.31,0-1.77.63-1.8,1.02-.09,1.01,1.19,1.49,2.08,1.49,1.74,0,2.64-.94,2.64-.94,0,0,4.88,1.84,9.98,1.84,6.67,0,12.29-1.77,12.29-1.77l-.19-.61h.02Zm-17.84-8.78c.57,0,.76.47.71.88-.28,2.45-2.71,3.01-2.71,3.01,0,0,.6-3.89,2-3.89h0Zm-7.25,9.46c-.49.01-.81-.31-.81-.5,0-.4.5-.47.81-.45.76.04,1.42.3,1.42.3,0,0-.77.62-1.42.64h0Z" style="fill:#fff;"/><path d="m362.67,91.19c-.62,0-1.08.25-1.08.84s.53.75,1.08.75,1.05-.26,1.05-.86-.6-.73-1.05-.73Z" style="fill:#fff;"/><polygon points="287.59 51.06 287.59 55.46 292.69 52.83 292.69 71.78 296.92 71.78 296.92 48.05 293.49 48.05 287.59 51.06"/><path d="m316.32,48.05h-5.93l-9.01,16.23v2.79h10.71v4.71h4.23v-4.71h2.95v-3.88h-2.95v-15.14Zm-10,15.13l5.77-10.55v10.55h-5.77Z"/><polygon points="319.95 48.08 319.95 52.03 326.97 52.03 326.97 71.78 331.17 71.78 331.17 52.03 338.19 52.03 338.19 48.08 319.95 48.08"/><path d="m205.45,47.58c-3.56,0-7.12.45-9.38,2.67-2.25,2.22-3.12,5.55-3.12,9.63s.77,7.35,3.04,9.57c2.25,2.21,5.91,2.75,9.47,2.75s7.11-.45,9.36-2.67c2.25-2.21,3.14-5.57,3.14-9.65s-.79-7.33-3.04-9.55c-2.25-2.22-5.9-2.74-9.46-2.74h0Zm5.4,18.19c-1.25,1.43-3.53,1.69-5.4,1.69s-4.14-.25-5.4-1.68-1.34-3.41-1.34-5.89.08-4.41,1.34-5.84c1.25-1.44,3.27-1.68,5.4-1.68s4.15.25,5.4,1.68,1.34,3.36,1.34,5.84-.08,4.45-1.34,5.89h0Zm-54.74-17.75h-5.04c-.22,0-.39.17-.39.38v22.99c0,.21.17.38.39.38h5.04c.21,0,.39-.17.39-.38v-22.99c0-.21-.18-.38-.39-.38Zm-21.18,11.69l8.95-11.09c.2-.24.02-.6-.29-.6h-6.45c-.15,0-.3.07-.39.2l-5.91,7.84-5.77-7.84c-.09-.13-.24-.2-.4-.2h-6.48c-.31,0-.48.36-.29.6l9.06,11.29-9.07,11.28c-.19.24-.01.59.29.59h6.47c.16,0,.3-.07.4-.2l6.05-7.82,5.72,7.82c.09.13.24.2.4.2h6.39c.31,0,.48-.35.29-.6l-8.97-11.48h0Zm122.74-9.94c-2.05-1.91-5.35-2.14-8.02-2.14-3.44,0-5.64.73-6.97,1.42h-.92c-1.3-.72-3.6-1.42-7.2-1.42-2.67,0-5.94.2-7.96,1.89-1.67,1.4-2.05,3.27-2.05,7.09v14.78c0,.21.18.38.39.38h5.04c.22,0,.39-.17.39-.38v-12.16c0-2.2-.09-4.48.39-5.33.37-.67.95-1.4,3.68-1.4,3.27,0,4.04.23,4.55,1.67.12.34.18.83.21,1.42v15.81c0,.21.17.38.39.38h5.04c.21,0,.39-.17.39-.38v-15.81c.03-.59.09-1.08.21-1.42.51-1.44,1.28-1.67,4.55-1.67,2.74,0,3.31.74,3.68,1.4.47.85.39,3.14.39,5.33v12.16c0,.21.17.38.39.38h5.04c.21,0,.39-.17.39-.38v-13.88c0-3.97-.13-6.01-2-7.74h0Zm-72.33,1.41c-2.33-3.21-6.54-4.18-10.9-3.94-4.43.24-7.52,1.18-8.3,1.47-.49.19-.43.6-.43.86-.02.85-.08,3.04-.08,3.93,0,.39.48.58.89.43,1.62-.57,4.6-1.48,6.99-1.68,2.59-.21,6.1,0,7.07,1.47.46.7.49,1.77.54,2.86-1.61-.15-4.01-.35-6.38-.22-1.85.1-5.39.26-7.48,1.37-1.7.9-2.69,1.73-3.22,3.25-.43,1.23-.54,2.71-.4,3.91.31,2.75,1.27,4.12,2.55,5.07,2.04,1.5,4.6,2.3,9.91,2.18,7.07-.15,8.93-2.44,9.86-4.06,1.6-2.76,1.32-7.12,1.27-9.8-.02-1.11-.18-4.76-1.89-7.11h0Zm-4.61,14.5c-.67,1.4-3.04,1.62-4.45,1.69-2.61.12-4.52.01-5.76-.6-.82-.4-1.42-1.34-1.48-2.4-.05-.9-.03-1.37.38-1.9.91-1.19,3.31-1.45,5.77-1.54,1.66-.07,4.2.12,6.06.35,0,1.8-.13,3.61-.51,4.4h-.01Zm92.37-17.65h-5.04c-.22,0-.39.17-.39.38v22.99c0,.21.17.38.39.38h5.04c.21,0,.39-.17.39-.38v-22.99c0-.21-.18-.38-.39-.38Z"/><polygon points="287.59 51.06 287.59 55.46 292.69 52.83 292.69 71.78 296.92 71.78 296.92 48.05 293.49 48.05 287.59 51.06"/><path d="m316.32,48.05h-5.93l-9.01,16.23v2.79h10.71v4.71h4.23v-4.71h2.95v-3.88h-2.95v-15.14Zm-10,15.13l5.77-10.55v10.55h-5.77Z"/><polygon points="319.95 48.08 319.95 52.03 326.97 52.03 326.97 71.78 331.17 71.78 331.17 52.03 338.19 52.03 338.19 48.08 319.95 48.08"/><path d="m205.45,47.58c-3.56,0-7.12.45-9.38,2.67-2.25,2.22-3.12,5.55-3.12,9.63s.77,7.35,3.04,9.57c2.25,2.21,5.91,2.75,9.47,2.75s7.11-.45,9.36-2.67c2.25-2.21,3.14-5.57,3.14-9.65s-.79-7.33-3.04-9.55c-2.25-2.22-5.9-2.74-9.46-2.74h0Zm5.4,18.19c-1.25,1.43-3.53,1.69-5.4,1.69s-4.14-.25-5.4-1.68-1.34-3.41-1.34-5.89.08-4.41,1.34-5.84c1.25-1.44,3.27-1.68,5.4-1.68s4.15.25,5.4,1.68,1.34,3.36,1.34,5.84-.08,4.45-1.34,5.89h0Zm-54.74-17.75h-5.04c-.22,0-.39.17-.39.38v22.99c0,.21.17.38.39.38h5.04c.21,0,.39-.17.39-.38v-22.99c0-.21-.18-.38-.39-.38Zm-21.18,11.69l8.95-11.09c.2-.24.02-.6-.29-.6h-6.45c-.15,0-.3.07-.39.2l-5.91,7.84-5.77-7.84c-.09-.13-.24-.2-.4-.2h-6.48c-.31,0-.48.36-.29.6l9.06,11.29-9.07,11.28c-.19.24-.01.59.29.59h6.47c.16,0,.3-.07.4-.2l6.05-7.82,5.72,7.82c.09.13.24.2.4.2h6.39c.31,0,.48-.35.29-.6l-8.97-11.48h0Zm122.74-9.94c-2.05-1.91-5.35-2.14-8.02-2.14-3.44,0-5.64.73-6.97,1.42h-.92c-1.3-.72-3.6-1.42-7.2-1.42-2.67,0-5.94.2-7.96,1.89-1.67,1.4-2.05,3.27-2.05,7.09v14.78c0,.21.18.38.39.38h5.04c.22,0,.39-.17.39-.38v-12.16c0-2.2-.09-4.48.39-5.33.37-.67.95-1.4,3.68-1.4,3.27,0,4.04.23,4.55,1.67.12.34.18.83.21,1.42v15.81c0,.21.17.38.39.38h5.04c.21,0,.39-.17.39-.38v-15.81c.03-.59.09-1.08.21-1.42.51-1.44,1.28-1.67,4.55-1.67,2.74,0,3.31.74,3.68,1.4.47.85.39,3.14.39,5.33v12.16c0,.21.17.38.39.38h5.04c.21,0,.39-.17.39-.38v-13.88c0-3.97-.13-6.01-2-7.74h0Zm-72.33,1.41c-2.33-3.21-6.54-4.18-10.9-3.94-4.43.24-7.52,1.18-8.3,1.47-.49.19-.43.6-.43.86-.02.85-.08,3.04-.08,3.93,0,.39.48.58.89.43,1.62-.57,4.6-1.48,6.99-1.68,2.59-.21,6.1,0,7.07,1.47.46.7.49,1.77.54,2.86-1.61-.15-4.01-.35-6.38-.22-1.85.1-5.39.26-7.48,1.37-1.7.9-2.69,1.73-3.22,3.25-.43,1.23-.54,2.71-.4,3.91.31,2.75,1.27,4.12,2.55,5.07,2.04,1.5,4.6,2.3,9.91,2.18,7.07-.15,8.93-2.44,9.86-4.06,1.6-2.76,1.32-7.12,1.27-9.8-.02-1.11-.18-4.76-1.89-7.11h0Zm-4.61,14.5c-.67,1.4-3.04,1.62-4.45,1.69-2.61.12-4.52.01-5.76-.6-.82-.4-1.42-1.34-1.48-2.4-.05-.9-.03-1.37.38-1.9.91-1.19,3.31-1.45,5.77-1.54,1.66-.07,4.2.12,6.06.35,0,1.8-.13,3.61-.51,4.4h-.01Zm92.37-17.65h-5.04c-.22,0-.39.17-.39.38v22.99c0,.21.17.38.39.38h5.04c.21,0,.39-.17.39-.38v-22.99c0-.21-.18-.38-.39-.38Z"/></svg>