<?xml version="1.0" encoding="UTF-8"?><svg id="a" xmlns="http://www.w3.org/2000/svg" width="456" height="185.72" viewBox="0 0 456 185.72"><path d="M205.42,112.67l38.37-42.19c7.16-7.92,12.16-14.54,15-19.89,2.83-5.35,4.25-11.33,4.25-17.97s-1.47-11.87-4.41-16.69c-2.94-4.81-6.98-8.5-12.11-11.07-5.13-2.57-11.02-3.85-17.65-3.85-8.34,0-15.64,2.11-21.9,6.34-6.26,4.22-10.78,9.97-13.55,17.24l7.22,4.97c2.78-6.52,6.6-11.47,11.47-14.84,4.86-3.37,10.4-5.05,16.6-5.05,7.27,0,13.21,2.11,17.81,6.34,4.6,4.22,6.9,9.97,6.9,17.24,0,5.35-1.31,10.3-3.93,14.84-2.62,4.55-7.24,10.56-13.87,18.05l-42.51,47.16v8.02h71.71v-8.66h-59.38Z" style="fill:#c0d2ee;"/><path d="M278.67,166.71c.33-2.14,1.92-3.62,4.27-3.62s3.83,1.48,4.05,3.62h-8.33ZM274.67,168.24c0,5.75,3.94,8.77,8.27,8.77,3.18,0,5.92-1.32,7.45-4l-3.07-2.08c-.88,1.86-2.36,2.63-4.16,2.63-2.3,0-4.38-1.53-4.49-3.89h11.89s.22-.71.22-1.86c0-4.49-2.85-8.27-7.83-8.27-5.64,0-8.27,4.71-8.27,8.71M260.04,168.41c0-3.18,1.7-5.26,4.55-5.26,2.68,0,4.44,2.08,4.44,5.31,0,2.96-1.81,4.99-4.55,4.99s-4.44-2.03-4.44-5.04M256.09,184.57h4v-9.26h.11c1.59,1.15,3.29,1.7,4.99,1.7,4.16,0,8-3.23,8-8.77s-3.12-8.71-7.83-8.71c-2.08,0-3.89.82-5.15,2.08h-.11v-1.59h-4v24.55ZM234.84,160.02l8.27,15.94-3.95,8.6h4.27l11.34-24.55h-4.33l-5.26,11.51-5.92-11.51h-4.44ZM214.67,176.57h4v-9.97h11.18v9.97h4v-23.34h-4v9.59h-11.18v-9.59h-4v23.34ZM200.32,176.57h3.78v-16.55h-3.78v16.55ZM199.83,155.31c0-1.31,1.15-2.41,2.36-2.41,1.42,0,2.41,1.1,2.41,2.41s-.99,2.36-2.41,2.36c-1.21,0-2.36-1.1-2.36-2.36M173.86,176.57v-16.55h3.78v2.03h.16c.93-1.53,2.79-2.52,4.71-2.52,2.69,0,4,1.64,4.49,2.85h.16c.71-1.21,2.47-2.85,5.53-2.85,3.73,0,5.48,2.9,5.48,6.63v10.41h-3.78v-9.7c0-1.97-1.04-3.78-2.96-3.78-2.41,0-3.62,1.86-3.62,4.05v9.42h-3.73v-9.7c0-1.86-.88-3.78-2.9-3.78-2.25,0-3.56,1.81-3.56,4.05v9.42h-3.78ZM160.16,168.46c0,2.69.99,5.37,4,5.37,2.85,0,4.11-2.58,4.11-5.37,0-3.4-1.26-5.75-4.11-5.75-2.63,0-4,2.03-4,5.75M156.32,168.46c0-6.19,3.89-8.93,7.84-8.93,4.55,0,7.83,3.18,7.83,8.93,0,4.88-2.9,8.55-7.83,8.55-4.49,0-7.84-3.4-7.84-8.55M144.16,171.97c0,1.37,1.31,1.86,2.63,1.86,2.25,0,4-1.21,4-3.84v-.6h-1.7c-2.14,0-4.93.44-4.93,2.58M140.38,172.24c0-4,3.45-5.92,7.94-5.92h2.47v-.49c0-2.25-1.7-3.12-3.4-3.12-1.59,0-2.68.77-3.51,1.92l-2.63-1.92c1.75-2.3,3.56-3.18,6.41-3.18,3.83,0,6.79,2.3,6.79,6.3v10.74h-3.67v-1.42h-.11c-.82,1.15-2.79,1.86-4.77,1.86-3.12,0-5.53-1.75-5.53-4.77M134.13,176.57h3.78v-16.55h-3.78v16.55ZM133.64,155.31c0-1.31,1.15-2.41,2.41-2.41,1.37,0,2.36,1.1,2.36,2.41s-.99,2.36-2.36,2.36c-1.26,0-2.41-1.1-2.41-2.36M110.79,176.57h4.44l5.97-8.55,5.92,8.55h4.44l-8.16-11.72,8.11-11.62h-4.49l-5.81,8.38-5.86-8.38h-4.49l8.11,11.62-8.16,11.72ZM296.58,168.3v8.27h-3.94v-16.55h3.94v2.58h.11c1.43-2.41,3.51-3.07,6.41-3.07h.66v3.89h-.66c-4.6,0-6.52,1.64-6.52,4.88" style="fill:#fff;"/><path d="M328.36,172.41l3.07-2.19c1.32,2.36,3.18,3.45,5.92,3.45,1.97,0,4.66-.66,4.66-3.23,0-2.41-3.12-3.29-5.31-3.89-3.56-1.04-7.73-2.25-7.73-7.07,0-4.38,3.78-6.9,8.55-6.9,3.45,0,6.57,1.53,8.33,4.6l-2.96,2.08c-1.26-1.86-3.23-3.07-5.42-3.07-2.03,0-4.44.99-4.44,3.12,0,2.63,2.9,3.29,5.26,3.94,4.6,1.31,7.78,2.74,7.78,7.01,0,4.93-4.38,7.12-8.71,7.12-3.78,0-7.23-1.59-8.99-4.99M309.73,165.01c0,5.21,2.36,8.82,6.74,8.82s6.74-3.56,6.74-8.82c0-4.71-2.08-8.66-6.74-8.66s-6.74,3.94-6.74,8.66M305.57,165.01c0-6.96,3.67-12.27,10.9-12.27s10.9,5.31,10.9,12.27c0,7.56-3.94,12.44-10.9,12.44s-10.9-4.82-10.9-12.44" style="fill:#2655ff;"/></svg>