<?xml version="1.0" encoding="UTF-8"?><svg id="a" xmlns="http://www.w3.org/2000/svg" width="456" height="59.64" viewBox="0 0 456 59.64"><path d="m61.14,48.2c1.45-1.29,2.16-3.1,2.16-5.41s-.75-4.13-2.23-5.44c-1.49-1.32-3.52-1.97-6.12-1.97h-8.89v23.73h4.2v-8.96h4.2l5.01,8.96h4.94l-5.7-9.51c.92-.32,1.73-.78,2.41-1.39h.02Zm-10.87-8.97h4.17c1.41,0,2.52.3,3.32.91s1.2,1.5,1.2,2.65-.4,1.97-1.2,2.57c-.8.6-1.91.9-3.32.9h-4.17v-7.03h0Z"/><path d="m78.16,42.18c-1.25-.75-2.71-1.13-4.38-1.13s-3.16.38-4.42,1.13-2.21,1.82-2.89,3.21-1.01,3.03-1.01,4.91.34,3.49,1.01,4.88c.67,1.39,1.64,2.47,2.89,3.22s2.72,1.14,4.42,1.14,3.13-.38,4.38-1.13,2.22-1.83,2.9-3.22c.69-1.4,1.03-3.03,1.03-4.89s-.34-3.52-1.03-4.91-1.65-2.46-2.9-3.21Zm-.74,10.98c-.33.82-.81,1.44-1.43,1.88-.62.44-1.36.66-2.21.66s-1.59-.22-2.21-.66-1.1-1.07-1.45-1.88c-.34-.82-.52-1.77-.52-2.86s.17-2.05.52-2.87c.34-.82.82-1.45,1.45-1.88.62-.43,1.36-.64,2.21-.64s1.59.21,2.21.64,1.1,1.06,1.43,1.88c.33.83.5,1.78.5,2.87s-.17,2.04-.5,2.86Z"/><path d="m98.29,42.21c-1.08-.75-2.33-1.13-3.74-1.13-1.01,0-1.95.23-2.82.71-.88.47-1.62,1.13-2.21,1.96h-.16v-8.37h-4.08v23.73h4.08v-2.25h.16c.58.85,1.3,1.52,2.17,1.99s1.81.71,2.84.71c1.41,0,2.66-.4,3.76-1.19,1.09-.79,1.94-1.9,2.53-3.34s.9-3.09.9-4.98c0-1.78-.3-3.34-.9-4.69-.6-1.35-1.44-2.4-2.52-3.15h0Zm-1.28,10.9c-.35.8-.86,1.43-1.51,1.88s-1.39.67-2.2.67-1.52-.22-2.14-.67c-.61-.45-1.09-1.08-1.43-1.88s-.52-1.74-.52-2.81.17-2.01.52-2.83c.34-.82.83-1.44,1.47-1.88s1.37-.66,2.18-.66,1.53.22,2.16.66,1.12,1.07,1.46,1.88c.34.82.51,1.76.51,2.83s-.17,2.01-.53,2.81h.03Z"/><path d="m116.84,42.18c-1.25-.75-2.71-1.13-4.38-1.13s-3.16.38-4.42,1.13-2.21,1.82-2.89,3.21-1.01,3.03-1.01,4.91.34,3.49,1.01,4.88,1.64,2.47,2.89,3.22,2.72,1.14,4.42,1.14,3.13-.38,4.38-1.13,2.22-1.83,2.9-3.22c.69-1.4,1.03-3.03,1.03-4.89s-.34-3.52-1.03-4.91-1.65-2.46-2.9-3.21Zm-.74,10.98c-.33.82-.81,1.44-1.43,1.88-.62.44-1.36.66-2.21.66s-1.59-.22-2.21-.66c-.62-.44-1.1-1.07-1.45-1.88-.34-.82-.52-1.77-.52-2.86s.17-2.05.52-2.87c.34-.82.82-1.45,1.45-1.88.62-.43,1.36-.64,2.21-.64s1.59.21,2.21.64,1.1,1.06,1.43,1.88c.33.83.5,1.78.5,2.87s-.17,2.04-.5,2.86Z"/><path d="m129.35,36.31h-4.11v5.2h-2.73v3.82h2.73v8.51c0,1.88.48,3.32,1.45,4.32.96,1,2.34,1.5,4.14,1.5,1.05,0,2.01-.14,2.89-.42v-3.82c-.71.21-1.36.32-1.96.32-.77,0-1.36-.21-1.78-.63s-.63-1.01-.63-1.78v-7.99h4.75v-3.82h-4.75v-5.21Z"/><polygon points="167.53 35.38 161.05 53.26 160.85 53.26 154.4 35.38 149.85 35.38 158.8 59.1 163.14 59.1 172.06 35.38 167.53 35.38"/><path d="m182.08,41.86c-1.09-.53-2.34-.8-3.76-.8s-2.74.28-3.85.85-2.07,1.42-2.86,2.55l2.89,1.99c.43-.62.94-1.09,1.52-1.41s1.26-.48,2.01-.48c1.03,0,1.85.28,2.49.84s.95,1.29.95,2.21v.67h-2.5c-1.69,0-3.16.26-4.4.79-1.24.52-2.19,1.26-2.84,2.2-.65.94-.98,2.03-.98,3.27,0,1.03.24,1.91.74,2.66.49.75,1.16,1.33,2.02,1.73.85.41,1.82.61,2.89.61s2.04-.23,2.92-.71,1.53-1.13,1.96-1.96h.19v2.21h4.05v-11.43c0-1.35-.3-2.52-.9-3.51-.6-1-1.45-1.76-2.53-2.29h0s-.01,0-.01,0Zm-.61,10.98c0,.71-.2,1.31-.59,1.8s-.89.86-1.5,1.11c-.6.24-1.22.37-1.86.37-.79,0-1.43-.16-1.91-.5-.48-.33-.72-.78-.72-1.33,0-.84.41-1.47,1.23-1.91.82-.44,2.06-.66,3.71-.66h1.64v1.13h0Z"/><path d="m194.68,45.57c.63-.44,1.38-.66,2.23-.66.77,0,1.48.21,2.12.63s1.19,1.02,1.64,1.81l3.21-2.25c-.64-1.22-1.58-2.19-2.81-2.92-1.23-.73-2.56-1.09-4-1.09-1.71,0-3.21.38-4.49,1.13s-2.27,1.82-2.97,3.21-1.04,3.02-1.04,4.88.35,3.49,1.04,4.88c.7,1.39,1.69,2.47,2.97,3.22,1.28.76,2.78,1.14,4.49,1.14,1.44,0,2.77-.37,4-1.11s2.16-1.72,2.81-2.94l-3.21-2.25c-.45.79-1,1.4-1.64,1.82s-1.36.63-2.15.63c-.85,0-1.59-.22-2.21-.66-.62-.44-1.1-1.07-1.45-1.88-.34-.82-.52-1.77-.52-2.86s.17-2.02.52-2.84c.34-.82.83-1.46,1.46-1.89h0Z"/><path d="m217.87,51.78c0,.79-.16,1.49-.47,2.09s-.76,1.07-1.33,1.4-1.24.5-1.99.5c-.96,0-1.75-.34-2.34-1.01s-.9-1.57-.9-2.68v-10.57h-4.08v11.43c0,2.1.52,3.73,1.57,4.88s2.48,1.73,4.3,1.73c1.07,0,2.06-.24,2.95-.74.9-.49,1.59-1.16,2.09-2.02h.19v2.31h4.08v-17.59h-4.08v10.27h0Z"/><path d="m236.88,51.78c0,.79-.16,1.49-.47,2.09s-.76,1.07-1.33,1.4-1.24.5-1.99.5c-.96,0-1.75-.34-2.34-1.01s-.9-1.57-.9-2.68v-10.57h-4.08v11.43c0,2.1.52,3.73,1.57,4.88,1.05,1.15,2.48,1.73,4.3,1.73,1.07,0,2.06-.24,2.95-.74.9-.49,1.59-1.16,2.09-2.02h.19v2.31h4.08v-17.59h-4.08v10.27h0Z"/><path d="m264.2,41.06c-1.24,0-2.33.27-3.26.8-.93.53-1.7,1.29-2.29,2.28h-.16c-.41-1.01-1-1.77-1.78-2.29s-1.7-.79-2.75-.79c-.98,0-1.9.24-2.75.72s-1.52,1.16-2.04,2.04h-.16v-2.31h-4.08v17.59h4.08v-10.27c0-.82.14-1.52.42-2.12s.67-1.06,1.19-1.38c.51-.32,1.13-.48,1.83-.48.58,0,1.08.15,1.51.44.43.29.76.71,1,1.27s.35,1.21.35,1.96v10.59h4.08v-10.27c0-.82.14-1.52.42-2.12s.67-1.06,1.19-1.38,1.13-.48,1.83-.48c.88,0,1.57.33,2.07.98.5.65.76,1.54.76,2.68v10.59h4.11v-11.43c0-2.1-.49-3.73-1.48-4.88s-2.34-1.73-4.08-1.73h0s0,0,0,0Z"/><polygon points="306.59 35.39 301.49 35.39 296.49 43.28 291.25 35.39 286.14 35.39 293.92 46.57 285.63 59.11 290.83 59.11 296.27 50.13 301.94 59.11 307.1 59.11 298.79 46.72 306.59 35.39"/><path d="m320.62,49.42c1.33-1.39,2.29-2.66,2.9-3.82s.91-2.38.91-3.66c0-1.41-.31-2.64-.93-3.69s-1.51-1.86-2.65-2.44c-1.15-.58-2.49-.86-4.03-.86-1.93,0-3.56.47-4.89,1.4s-2.31,2.12-2.9,3.55l3.27,2.25c.52-1.11,1.14-1.95,1.86-2.5.73-.55,1.57-.84,2.53-.84,1.05,0,1.88.3,2.49.91s.91,1.43.91,2.46c0,.83-.21,1.62-.64,2.34s-1.19,1.69-2.28,2.89l-8.16,8.7v3.02h15.89v-3.95h-9.66l5.36-5.75h.02Z"/><path d="m336.19,34.93c-2.78,0-4.92,1.04-6.41,3.13s-2.23,5.16-2.23,9.2.75,7.08,2.23,9.15,3.62,3.12,6.41,3.12,4.92-1.04,6.41-3.12c1.48-2.08,2.23-5.12,2.23-9.15s-.75-7.11-2.23-9.2c-1.49-2.09-3.62-3.13-6.41-3.13Zm3.19,18.56c-.74,1.41-1.81,2.12-3.19,2.12s-2.43-.71-3.18-2.12-1.13-3.49-1.13-6.23.38-4.85,1.13-6.28,1.81-2.14,3.18-2.14,2.46.71,3.19,2.14c.74,1.42,1.11,3.51,1.11,6.28s-.37,4.82-1.11,6.23Z"/><path d="m369.49,35.38h-8.99v23.73h4.2v-8.12h5.07c2.59,0,4.61-.69,6.07-2.06s2.18-3.28,2.18-5.75-.76-4.38-2.26-5.75c-1.51-1.37-3.6-2.06-6.28-2.06h0Zm2.97,10.71c-.83.67-2,1.01-3.51,1.01h-4.24v-7.86h4.24c1.52,0,2.69.34,3.51,1.03s1.23,1.66,1.23,2.92-.41,2.23-1.23,2.9Z"/><path d="m388.01,42.02c-1.09.64-1.96,1.55-2.6,2.73h-.16v-3.24h-4.08v17.59h4.08v-9.21c0-.96.24-1.81.72-2.52.48-.72,1.21-1.26,2.18-1.64s2.2-.56,3.68-.56h.29v-4.11h-.19c-1.52,0-2.83.32-3.92.96h0Z"/><path d="m408.91,45.39c-.69-1.39-1.65-2.46-2.9-3.21s-2.71-1.13-4.38-1.13-3.16.38-4.42,1.13-2.21,1.82-2.89,3.21-1.01,3.03-1.01,4.91.34,3.49,1.01,4.88,1.64,2.47,2.89,3.22,2.72,1.14,4.42,1.14,3.13-.38,4.38-1.13,2.22-1.83,2.9-3.22c.69-1.4,1.03-3.03,1.03-4.89s-.34-3.52-1.03-4.91Zm-3.64,7.77c-.33.82-.81,1.44-1.43,1.88-.62.44-1.36.66-2.21.66s-1.59-.22-2.21-.66-1.1-1.07-1.45-1.88c-.34-.82-.52-1.77-.52-2.86s.17-2.05.52-2.87c.34-.82.82-1.45,1.45-1.88.62-.43,1.36-.64,2.21-.64s1.59.21,2.21.64,1.1,1.06,1.43,1.88c.33.83.5,1.78.5,2.87s-.17,2.04-.5,2.86Z"/><path d="m167.56,12.45l8.91-11.03c.2-.24.02-.6-.28-.6h-6.42c-.15,0-.3.07-.39.2l-5.89,7.8-5.74-7.8c-.09-.13-.24-.2-.39-.2h-6.44c-.3,0-.47.36-.28.6l9.02,11.24-9.03,11.22c-.18.24-.01.59.29.59h6.44c.16,0,.3-.08.4-.2l6.01-7.78,5.7,7.78c.09.13.24.2.39.2h6.36c.3,0,.48-.35.29-.59l-8.93-11.43h-.02Z"/><path d="m188.64.82h-5.01c-.21,0-.39.17-.39.38v22.88c0,.21.17.38.39.38h5.01c.21,0,.39-.17.39-.38V1.2c0-.21-.18-.38-.39-.38Z"/><path d="m217.72,3.96c-2.32-3.19-6.5-4.16-10.85-3.93-4.41.24-7.48,1.17-8.26,1.47-.49.18-.42.6-.43.85-.02.84-.08,3.02-.08,3.92,0,.39.48.57.89.43,1.61-.57,4.57-1.48,6.96-1.67,2.57-.21,6.07,0,7.04,1.46.46.7.48,1.76.54,2.84-1.6-.15-3.99-.35-6.35-.22-1.84.1-5.37.26-7.44,1.36-1.69.9-2.68,1.72-3.2,3.24-.42,1.23-.54,2.69-.4,3.89.31,2.74,1.26,4.09,2.54,5.05,2.03,1.5,4.58,2.29,9.86,2.18,7.03-.15,8.88-2.43,9.82-4.04,1.59-2.75,1.31-7.09,1.26-9.75-.02-1.1-.18-4.74-1.88-7.07h-.02Zm-4.58,14.43c-.66,1.4-3.03,1.62-4.43,1.67-2.59.12-4.5.02-5.73-.59-.82-.4-1.42-1.33-1.47-2.38-.05-.9-.03-1.36.38-1.89.91-1.19,3.29-1.44,5.74-1.53,1.65-.07,4.18.13,6.03.35-.02,1.79-.13,3.59-.51,4.38h0Z"/><path d="m305.05.82h-5.01c-.21,0-.39.17-.39.38v22.88c0,.21.17.38.39.38h5.01c.21,0,.39-.17.39-.38V1.2c0-.21-.17-.38-.39-.38Z"/><path d="m237.73.39c-3.55,0-7.09.45-9.33,2.65-2.24,2.21-3.11,5.52-3.11,9.58s.77,7.32,3.02,9.52c2.24,2.2,5.88,2.74,9.42,2.74s7.07-.45,9.32-2.66c2.24-2.2,3.13-5.54,3.13-9.6s-.78-7.3-3.03-9.51c-2.24-2.21-5.87-2.73-9.41-2.73h-.01Zm5.37,18.1c-1.25,1.42-3.51,1.68-5.37,1.68s-4.12-.25-5.37-1.67-1.33-3.39-1.33-5.86.08-4.38,1.33-5.81c1.25-1.42,3.25-1.67,5.37-1.67s4.13.25,5.37,1.67c1.25,1.42,1.33,3.34,1.33,5.81s-.08,4.43-1.33,5.86h0Z"/><path d="m289.69,2.56c-2.04-1.9-5.32-2.13-7.98-2.13-3.43,0-5.61.73-6.94,1.41h-.92c-1.29-.72-3.58-1.41-7.17-1.41-2.65,0-5.91.2-7.92,1.88-1.66,1.39-2.04,3.25-2.04,7.06v14.7c0,.21.17.38.39.38h5.01c.22,0,.39-.17.39-.38v-12.1c0-2.19-.09-4.46.39-5.31.37-.66.95-1.4,3.67-1.4,3.25,0,4.01.23,4.52,1.66.12.34.18.83.21,1.41v15.73c0,.21.17.38.39.38h5.01c.21,0,.39-.17.39-.38v-15.73c.03-.59.09-1.08.21-1.41.51-1.44,1.28-1.66,4.52-1.66,2.72,0,3.3.74,3.67,1.4.47.85.39,3.12.39,5.31v12.1c0,.21.17.38.39.38h5.01c.21,0,.39-.17.39-.38v-13.81c0-3.95-.13-5.98-1.98-7.7h.02-.02Z"/></svg>